<?xml version="1.0" standalone="no"?>
<!DOCTYPE svg PUBLIC "-//W3C//DTD SVG 20010904//EN"
 "http://www.w3.org/TR/2001/REC-SVG-20010904/DTD/svg10.dtd">
<svg version="1.0" xmlns="http://www.w3.org/2000/svg"
 width="1024.000000pt" height="1024.000000pt" viewBox="0 0 1024.000000 1024.000000"
 preserveAspectRatio="xMidYMid meet">

<g transform="translate(0.000000,1024.000000) scale(0.100000,-0.100000)"
fill="#000000" stroke="none">
<path d="M5643 7016 c-97 -32 -188 -109 -215 -183 l-12 -33 -311 0 -310 0
-548 -548 -547 -547 0 -53 c0 -29 7 -66 15 -82 31 -60 32 -60 350 -61 159 0
311 -4 338 -7 l47 -7 -124 -124 -124 -124 -53 23 c-165 70 -374 -18 -440 -187
-34 -87 -32 -189 5 -270 118 -259 483 -265 612 -11 31 61 43 177 26 242 l-11
38 636 639 c591 593 638 638 662 631 14 -4 62 -7 106 -7 67 0 89 4 136 28 76
37 150 117 178 192 30 79 26 207 -8 273 -34 66 -97 129 -160 158 -68 33 -182
42 -248 20z m152 -210 c70 -30 96 -122 52 -187 -58 -86 -175 -79 -223 14 -32
62 0 141 71 173 39 17 58 17 100 0z m-365 -267 l24 -50 -390 -390 -389 -389
-332 0 c-183 0 -333 3 -333 7 0 5 195 203 432 440 l433 433 266 0 266 0 23
-51z m-1350 -1474 c44 -23 70 -62 70 -107 0 -125 -145 -181 -224 -87 -90 107
30 258 154 194z"/>
<path d="M5195 5682 c-17 -15 -39 -37 -50 -50 l-19 -23 54 -54 54 -55 138 0
138 0 0 -383 0 -382 -432 -432 -433 -433 -40 11 c-62 17 -192 7 -245 -20 -61
-31 -126 -96 -158 -156 -37 -72 -43 -197 -12 -277 41 -111 146 -197 266 -219
141 -26 301 55 364 186 l22 45 316 0 317 1 538 532 537 532 0 43 c0 24 -7 56
-15 71 -13 27 -68 61 -96 61 -8 0 -245 -232 -529 -515 l-515 -515 -276 0 -275
0 -17 35 c-9 20 -17 41 -17 48 0 7 203 215 450 462 l450 450 0 516 c0 487 -1
517 -18 532 -16 15 -48 17 -243 17 l-224 -1 -30 -27z m-626 -2020 c66 -35 89
-118 51 -180 -67 -110 -240 -61 -240 68 0 100 101 159 189 112z"/>
<path d="M4612 5097 l-52 -53 0 -150 0 -150 -86 -84 c-85 -84 -86 -85 -80
-125 8 -51 64 -105 110 -105 26 0 49 19 148 117 l118 118 0 205 0 206 -38 37
c-21 20 -45 37 -53 37 -8 0 -38 -24 -67 -53z"/>
</g>
</svg>
